<svg width="93" height="22" viewBox="0 0 93 22" fill="none" xmlns="http://www.w3.org/2000/svg">
<path fill-rule="evenodd" clip-rule="evenodd" d="M26.8779 1.43963C28.1239 1.77508 29.1063 2.75748 29.4417 4.00344C30.0647 6.27972 30.0407 11.024 30.0407 11.024C30.0407 11.024 30.0407 15.7443 29.4417 18.0205C29.1063 19.2665 28.1239 20.2489 26.8779 20.5844C24.6016 21.1834 15.4965 21.1834 15.4965 21.1834C15.4965 21.1834 6.41535 21.1834 4.1151 20.5604C2.86914 20.2249 1.88674 19.2425 1.55129 17.9966C0.952271 15.7443 0.952271 11 0.952271 11C0.952271 11 0.952271 6.27972 1.55129 4.00344C1.88674 2.75748 2.8931 1.75112 4.1151 1.41567C6.39138 0.81665 15.4965 0.81665 15.4965 0.81665C15.4965 0.81665 24.6016 0.81665 26.8779 1.43963ZM20.1683 11.0001L12.5967 15.3609V6.63919L20.1683 11.0001ZM43.1957 19.3623C42.6207 18.979 42.2133 18.38 41.9737 17.5413C41.7341 16.7267 41.6143 15.6245 41.6143 14.2826V12.4377C41.6143 11.0719 41.7581 9.96969 42.0217 9.13106C42.3092 8.29243 42.7405 7.69341 43.3155 7.31004C43.9146 6.92667 44.6813 6.73498 45.6397 6.73498C46.5742 6.73498 47.341 6.92667 47.916 7.31004C48.4911 7.69341 48.8984 8.3164 49.162 9.13106C49.4256 9.94573 49.5693 11.0479 49.5693 12.4377V14.2826C49.5693 15.6484 49.4495 16.7267 49.186 17.5653C48.9224 18.38 48.5151 19.0029 47.94 19.3863C47.3649 19.7697 46.5742 19.9614 45.5918 19.9614C44.5855 19.9374 43.7708 19.7457 43.1957 19.3623ZM46.4305 17.3496C46.5982 16.9423 46.6701 16.2474 46.6701 15.313V11.3355C46.6701 10.425 46.5982 9.75405 46.4305 9.32275C46.2627 8.89146 45.9992 8.69977 45.5918 8.69977C45.2085 8.69977 44.9209 8.91542 44.7772 9.32275C44.6094 9.75405 44.5375 10.425 44.5375 11.3355V15.313C44.5375 16.2474 44.6094 16.9423 44.7772 17.3496C44.9209 17.757 45.2085 17.9726 45.6158 17.9726C45.9992 17.9726 46.2627 17.7809 46.4305 17.3496ZM87.4275 14.3066V14.9536C87.4275 15.7682 87.4514 16.3912 87.4994 16.7985C87.5473 17.2059 87.6431 17.5174 87.8109 17.6851C87.9546 17.8768 88.1942 17.9726 88.5297 17.9726C88.961 17.9726 89.2485 17.8049 89.4162 17.4694C89.584 17.134 89.6558 16.5829 89.6798 15.7922L92.1478 15.9359C92.1717 16.0558 92.1717 16.1995 92.1717 16.3912C92.1717 17.5653 91.8602 18.4518 91.2133 19.0269C90.5664 19.602 89.6558 19.8895 88.4818 19.8895C87.0681 19.8895 86.0857 19.4342 85.5106 18.5477C84.9355 17.6611 84.648 16.2954 84.648 14.4264V12.1981C84.648 10.2812 84.9355 8.89146 85.5346 8.0049C86.1336 7.11835 87.1399 6.68706 88.5536 6.68706C89.536 6.68706 90.3028 6.87874 90.8299 7.23816C91.3571 7.59757 91.7165 8.17263 91.9321 8.91542C92.1478 9.68216 92.2436 10.7364 92.2436 12.0782V14.2587H87.4275V14.3066ZM87.7869 8.93938C87.6431 9.13106 87.5473 9.41859 87.4994 9.82593C87.4514 10.2333 87.4275 10.8562 87.4275 11.6949V12.6054H89.536V11.6949C89.536 10.8802 89.5121 10.2572 89.4641 9.82593C89.4162 9.39463 89.2964 9.1071 89.1527 8.93938C89.0089 8.77165 88.7693 8.67581 88.4818 8.67581C88.1463 8.65185 87.9306 8.74769 87.7869 8.93938ZM36.1992 14.067L32.9405 2.2543H35.7918L36.942 7.59757C37.2295 8.91542 37.4451 10.0416 37.5889 10.9761H37.6608C37.7566 10.3051 37.9723 9.20295 38.3077 7.62153L39.5058 2.2543H42.3571L39.0505 14.067V19.7218H36.2231V14.067H36.1992ZM58.8422 6.97459V19.7457H56.5899L56.3503 18.1883H56.2784C55.6793 19.3623 54.7449 19.9614 53.5229 19.9614C52.6842 19.9614 52.0613 19.6738 51.6539 19.1227C51.2466 18.5716 51.0549 17.7091 51.0549 16.511V6.97459H53.9302V16.3433C53.9302 16.9183 54.0021 17.3257 54.1219 17.5653C54.2417 17.8049 54.4573 17.9247 54.7449 17.9247C54.9845 17.9247 55.2241 17.8528 55.4637 17.6851C55.7033 17.5413 55.871 17.3496 55.9669 17.11V6.97459H58.8422ZM73.5781 6.97459V19.7457H71.3258L71.0862 18.1883H71.0143C70.4153 19.3623 69.4808 19.9614 68.2588 19.9614C67.4202 19.9614 66.7972 19.6738 66.3898 19.1227C65.9825 18.5716 65.7908 17.7091 65.7908 16.511V6.97459H68.6661V16.3433C68.6661 16.9183 68.738 17.3257 68.8578 17.5653C68.9776 17.8049 69.1933 17.9247 69.4808 17.9247C69.7204 17.9247 69.96 17.8528 70.1996 17.6851C70.4392 17.5413 70.607 17.3496 70.7028 17.11V6.97459H73.5781ZM63.8024 4.57845H66.6538V2.25425H58.1477V4.57845H60.999V19.7217H63.8024V4.57845ZM82.2523 7.26207C82.6357 7.62148 82.9232 8.19654 83.0909 9.01121C83.2587 9.80192 83.3305 10.9281 83.3545 12.3897V14.4024C83.3545 16.2953 83.1149 17.709 82.6596 18.5955C82.2044 19.4821 81.5095 19.9374 80.5271 19.9374C79.976 19.9374 79.4968 19.7936 79.0415 19.554C78.5863 19.2904 78.2508 18.955 78.0352 18.5237H77.9633L77.6758 19.7217H75.3036V1.6073H78.0831V8.3403H78.1071C78.3467 7.86109 78.7061 7.45375 79.1613 7.16622C79.6166 6.85473 80.1198 6.71097 80.6469 6.71097C81.3178 6.71097 81.8689 6.90265 82.2523 7.26207ZM80.3354 16.3912C80.4073 15.864 80.4552 15.1452 80.4552 14.2107H80.4792V12.5335C80.4792 11.5511 80.4552 10.7843 80.3834 10.2332C80.3115 9.70607 80.2156 9.3227 80.0479 9.08309C79.9041 8.86744 79.6645 8.74764 79.377 8.74764C79.1134 8.74764 78.8499 8.86744 78.6103 9.08309C78.3706 9.3227 78.2029 9.61023 78.1071 9.94568V17.1819C78.2269 17.3975 78.3946 17.5652 78.5863 17.685C78.778 17.8048 78.9936 17.8528 79.2332 17.8528C79.5208 17.8528 79.7604 17.733 79.9521 17.5173C80.1198 17.3017 80.2635 16.9183 80.3354 16.3912Z" fill="white"/>
</svg>
