<svg width="100" height="26" viewBox="0 0 100 26" fill="none" xmlns="http://www.w3.org/2000/svg">
<path d="M32.4947 10.2697C32.4947 8.46312 30.7614 6.56844 27.7489 6.56844C24.3706 6.56844 20.6614 9.05591 20.0934 14.0207C19.513 19.034 22.6193 21.2618 25.7504 21.2618C28.8814 21.2618 30.5209 20.0367 32.1977 18.4029C30.7558 16.585 28.8939 17.425 28.5371 17.6102C27.9464 17.9393 27.2775 18.1021 26.6017 18.0811C25.3936 18.0811 24.1605 17.5368 24.1605 15.2718C31.9019 14.504 32.4935 12.065 32.4935 10.2697H32.4947ZM28.6579 10.5667C28.6082 11.1234 28.3869 12.0763 24.4665 12.6104C25.2908 9.66339 26.8716 9.44208 27.5976 9.44208C27.7448 9.43536 27.8916 9.46039 28.0282 9.51547C28.1649 9.57055 28.288 9.65439 28.3893 9.76129C28.4907 9.8682 28.5678 9.99566 28.6155 10.135C28.6632 10.2744 28.6804 10.4224 28.6658 10.5689L28.6579 10.5667ZM15.5464 11.05L13.7466 16.7317L12.4763 6.86653C9.64218 6.86653 8.11785 8.89671 7.32294 11.0375L5.12791 16.7442L4.81966 11.0985C4.65254 8.47441 2.25653 6.87782 0.320068 6.87782L2.66189 21.15C5.6315 21.1387 7.23487 19.1199 8.07381 16.979L9.9301 12.1271C9.94704 12.3247 11.2128 21.1512 11.2128 21.1512C14.196 21.1512 15.7993 19.2576 16.6586 17.1902L20.8364 6.87895C17.895 6.87895 16.3447 8.89671 15.5441 11.05H15.5464ZM43.4427 6.53344C41.6056 6.53344 40.2021 7.5361 39.0165 9.00849V8.9972L40.0756 0.419189C37.6345 0.419189 35.6495 2.54873 35.2678 5.71707L33.4318 21.0394C34.8376 21.0394 36.3292 20.6306 37.1309 19.5907C37.8467 20.5189 38.9183 21.2618 40.5092 21.2618C44.626 21.2618 47.45 16.4596 47.45 11.9533C47.4252 7.84323 45.4401 6.54473 43.4551 6.54473L43.4427 6.53344ZM43.0588 13.8988C42.6297 16.4111 41.2341 18.1194 39.8916 18.1194C38.5491 18.1194 37.9563 17.5131 37.9563 17.5131C38.216 15.3113 38.3763 13.9609 38.8686 12.7967C39.3609 11.6326 40.5329 9.7763 41.7535 9.7763C42.9504 9.7763 43.4924 11.3729 43.0599 13.8976L43.0588 13.8988ZM57.7172 6.86766H54.8447L54.856 6.71861C55.0536 4.83748 55.4973 3.84723 56.9607 3.68577C57.96 3.5864 58.4037 3.067 58.5144 2.49792L58.8723 0.505004C53.1137 0.467742 51.2913 2.96651 50.8272 6.78071L50.8159 6.86766H50.7538C49.8167 6.86766 48.7824 7.93243 48.6085 9.28174L48.5464 9.7763H50.4704L48.8558 23.1678L48.3612 25.5695C48.4233 25.5695 48.4967 25.5807 48.5577 25.5807C51.2563 25.4814 52.9839 23.3406 53.3655 20.2332L54.6256 9.77404H55.5289C56.4164 9.77404 57.453 8.88203 57.6336 7.39722L57.7172 6.86766ZM72.6579 6.61925C69.3416 6.61925 66.2105 9.06946 65.2507 12.9198C64.291 16.7701 65.7453 21.3239 70.6254 21.3239C75.5055 21.3239 78.3001 16.5816 78.3001 12.6341C78.3046 8.7104 75.6557 6.61812 72.659 6.61812L72.6579 6.61925ZM74.0015 13.7734C73.8299 15.5191 73.0643 18.168 70.9687 18.168C68.873 18.168 69.1564 15.0742 69.3597 13.6007C69.5821 12.0289 70.4572 9.78872 72.3428 9.78872C74.0388 9.78872 74.198 11.8065 74.0026 13.7746L74.0015 13.7734ZM94.6872 11.0375L92.8874 16.7193C92.8388 16.2733 91.6182 6.85411 91.6182 6.85411C88.7841 6.85411 87.2666 8.88428 86.4716 11.0251L84.2766 16.7317C84.2653 16.323 83.9684 11.0861 83.9684 11.0861C83.79 8.46199 81.3962 6.8654 79.4518 6.8654L81.7812 21.1376C84.7508 21.1263 86.3542 19.1074 87.1932 16.9666L89.0427 12.1147C89.054 12.3123 90.3254 21.1387 90.3254 21.1387C93.3085 21.1387 94.9051 19.2452 95.7712 17.1778L99.9523 6.86653C97.0189 6.86653 95.4652 8.88429 94.6759 11.0375H94.6872ZM60.4294 0.502747L58.013 20.0706L57.5185 22.4847C57.5794 22.4847 57.654 22.496 57.7149 22.496C60.3142 22.4587 62.1637 20.17 62.5104 17.285L63.9026 6.05807C64.3249 2.6289 62.2913 0.500487 60.4294 0.500487V0.502747Z" fill="white"/>
</svg>
