<svg width="71" height="24" viewBox="0 0 71 24" fill="none" xmlns="http://www.w3.org/2000/svg">
<path fill-rule="evenodd" clip-rule="evenodd" d="M70.5834 7.77746V19.4503L64.2504 23.921H60.357V21.9339L57.4362 23.921H54.0289V21.9339L51.8385 23.921H45.5109L43.5642 21.9339L43.0771 23.921L37.4918 23.9057L35.2894 21.9339L35.0461 23.921L28.7186 23.9057L28.4753 21.9339L26.7719 23.9057L17.037 23.921L15.0898 22.9274V23.921H9.73529L3.89424 20.1955L0.243652 16.4701V0.0788574H7.7881L11.4387 3.80428H27.9882V0.0788574H41.6175V3.80428H45.0248V5.79138L46.972 3.80428H51.1096L54.7602 0.0788574H62.5479V3.80428H66.6856L70.5834 7.77746ZM9.73529 5.5421H6.32797V1.81668H1.94706V15.7253L4.62406 18.7055H9.73529V13.9865H6.32797V10.0133H9.73529V5.5421ZM27.9882 5.5421H23.6073V13.987H21.9039V5.5421H17.7663V13.987H16.0629V5.5421H11.4387V18.7055H25.068L27.9882 15.7253V5.5421ZM33.8293 5.5421H29.6916V18.7055H33.8293V5.5421ZM33.8293 1.81668H29.6916V3.80377H33.8293V1.81668ZM43.3209 5.5421H39.9136V1.81668H35.5332V15.7253L38.2102 18.7055H43.3199V13.9865H39.9126V10.0133H43.3199L43.3209 5.5421ZM54.516 5.5421H47.7018L45.0248 8.27398V15.7253L47.9451 18.7055H54.5155V13.9865H49.648V10.0133H54.5155L54.516 5.5421ZM68.875 8.27398L65.9548 5.5421H60.844V1.81668H56.2199V18.7055H60.844V10.0123H64.2514V18.705H68.8755L68.875 8.27398Z" fill="white"/>
</svg>
