<svg width="118" height="28" viewBox="0 0 118 28" fill="none" xmlns="http://www.w3.org/2000/svg">
<path fill-rule="evenodd" clip-rule="evenodd" d="M0.160278 14C0.160278 6.26806 6.42834 0 14.1603 0C21.8924 0 28.1604 6.26806 28.1604 14C28.1604 21.732 21.8924 28 14.1603 28C12.717 28 11.325 27.7813 10.0151 27.3757C10.5858 26.4458 11.4391 24.9215 11.7551 23.7055C11.9253 23.0505 12.6273 20.3774 12.6273 20.3774C13.0838 21.248 14.4175 21.985 15.8362 21.985C20.0587 21.985 23.1009 18.1019 23.1009 13.277C23.1009 8.652 19.3268 5.19125 14.4701 5.19125C8.42852 5.19125 5.21978 9.24704 5.21978 13.6633C5.21978 15.7166 6.313 18.273 8.06151 19.0869C8.32684 19.2104 8.46869 19.156 8.52974 18.8998C8.54996 18.8149 8.6063 18.5861 8.67222 18.3184C8.75743 17.9724 8.85864 17.5613 8.91855 17.312C8.95263 17.1705 8.93588 17.0491 8.82146 16.9105C8.24306 16.2091 7.77954 14.9188 7.77954 13.7155C7.77954 10.6277 10.1177 7.63992 14.1012 7.63992C17.5405 7.63992 19.9491 9.98358 19.9491 13.3357C19.9491 17.1229 18.0364 19.7466 15.5481 19.7466C14.1737 19.7466 13.1451 18.6102 13.4749 17.2168C13.6177 16.6146 13.809 15.9953 13.9949 15.3931C14.3229 14.3308 14.6344 13.322 14.6344 12.5554C14.6344 11.4801 14.0575 10.5833 12.863 10.5833C11.4581 10.5833 10.3298 12.0367 10.3298 13.9834C10.3298 15.2233 10.7485 16.0619 10.7485 16.0619C10.7485 16.0619 9.3613 21.9282 9.10687 23.0209C8.82536 24.2301 8.93599 25.9336 9.05833 27.0413C3.85044 25.0014 0.160278 19.9311 0.160278 14ZM48.1422 4.65644C49.3706 4.65644 50.3665 5.65223 50.3665 6.88076C50.3665 8.10917 49.3706 9.10495 48.1422 9.10495C46.9138 9.10495 45.9179 8.10917 45.9179 6.88076C45.9179 5.65223 46.9138 4.65644 48.1422 4.65644ZM50.7703 9.99645H54.3419V11.5889H54.4101C55.2746 10.3376 56.3893 9.65526 58.0045 9.65526C60.5524 9.65526 62.0538 11.4752 62.0538 14.0685V21.644H58.3457V14.8193C58.3457 13.5908 57.7315 12.749 56.5258 12.749C55.2974 12.749 54.4784 13.7728 54.4784 15.2059V21.644H50.7703V9.99645ZM46.288 9.99645H49.9962V21.644H46.288V9.99645ZM88.1336 9.82832C88.0278 9.8188 87.9064 9.81455 87.7645 9.81455C86.3541 9.81455 85.3987 10.4288 84.5796 11.8165H84.5115V9.99657H80.9626V21.644H84.6706V16.4117C84.6706 13.9874 86.0132 12.864 88.1336 13.06V9.82832ZM105.793 14.201C105.968 14.2314 106.148 14.2627 106.331 14.2964C108.378 14.6377 110.789 15.1609 110.789 18.1411C110.789 20.6889 108.537 22.0083 105.489 22.0083C102.21 22.0083 100.108 20.5582 99.8481 18.1638H103.381C103.608 19.1238 104.348 19.597 105.466 19.597C106.581 19.597 107.286 19.1875 107.286 18.4367C107.286 17.4998 106.155 17.3106 104.808 17.0853L104.808 17.0852L104.808 17.0852L104.808 17.0852L104.808 17.0851C104.65 17.0589 104.49 17.0321 104.329 17.0036C102.304 16.6623 100.143 16.1163 100.143 13.3865C100.143 10.9296 102.418 9.65563 105.171 9.65563C108.469 9.65563 110.244 11.0889 110.426 13.3865H107.013C106.877 12.34 106.171 12.0216 105.148 12.0216C104.238 12.0216 103.533 12.3627 103.533 13.0908C103.533 13.8087 104.546 13.9846 105.793 14.201ZM93.8858 12.2946C95.0915 12.2946 95.9559 13.1819 96.0925 14.5697H91.4972C91.7473 13.1819 92.4754 12.2946 93.8858 12.2946ZM94.0905 19.324C92.5663 19.324 91.7019 18.3459 91.4743 16.7762H99.8461C99.8688 14.4104 99.1864 12.3856 97.7986 11.1118C96.7977 10.2018 95.4782 9.6558 93.8174 9.6558C90.2686 9.6558 87.8345 12.3174 87.8345 15.7981C87.8345 19.324 90.2005 21.9858 94.045 21.9858C95.5236 21.9858 96.7067 21.5991 97.6849 20.9166C98.7086 20.2114 99.3911 19.2104 99.6412 18.164H96.0242C95.7056 18.8919 95.0688 19.324 94.0905 19.324ZM117.274 18.8994L117.32 18.8975V21.6462C116.948 21.7188 116.324 21.7806 115.5 21.7806C113.339 21.7806 111.792 21.0755 111.792 18.573V12.317H110.654V9.99662H111.792V6.31128H115.409V9.99662H117.32V12.317H115.409V17.7768C115.409 18.6867 115.909 18.9143 116.706 18.9143C116.899 18.9143 117.109 18.906 117.274 18.8994ZM68.6761 18.9028C68.5282 18.9086 68.3574 18.9143 68.1979 18.9143C67.4018 18.9143 66.9012 18.6867 66.9012 17.7768V12.317H68.6761V9.99662H66.9012V6.31128H63.2842V9.99662H62.078V12.317H63.2842V18.573C63.2842 21.0755 64.831 21.7806 66.9922 21.7806C67.7235 21.7806 68.296 21.7319 68.6761 21.6703V18.9028ZM74.5462 12.2946C75.7519 12.2946 76.6165 13.182 76.7529 14.5697H72.1575C72.4078 13.182 73.1358 12.2946 74.5462 12.2946ZM74.478 9.65592C70.9291 9.65592 68.495 12.3175 68.495 15.7981C68.495 19.3241 70.8608 21.9858 74.7055 21.9858C76.1842 21.9858 77.3671 21.5991 78.3452 20.9167C79.369 20.2114 80.0514 19.2104 80.3017 18.164H76.6845C76.3662 18.8919 75.7291 19.3241 74.751 19.3241C73.2268 19.3241 72.3623 18.3459 72.1349 16.7763H80.5064C80.5292 14.4104 79.8468 12.3858 78.4591 11.1118C77.4581 10.2018 76.1386 9.65592 74.478 9.65592ZM39.8483 13.0221C41.3043 13.0221 42.1232 12.1576 42.1232 10.8608C42.1232 9.56426 41.2815 8.76804 39.8483 8.76804H37.0045V13.0221H39.8483ZM33.2504 5.37844H39.6897C41.6688 5.37844 43.1248 5.92436 44.1257 6.87986C45.1722 7.85798 45.7637 9.24579 45.7637 10.8837C45.7637 14.0003 43.6025 16.207 40.2584 16.207H37.0045V21.644H33.2504V5.37844Z" fill="white"/>
</svg>
