<svg width="118" height="24" viewBox="0 0 118 24" fill="none" xmlns="http://www.w3.org/2000/svg">
<path d="M7.4221 23.1059H3.00739V11.983H0V8.36156H3.00727V5.78467C3.00727 2.73105 4.33739 0.541016 8.74016 0.541016C9.67135 0.541016 11.1333 0.730712 11.1333 0.730712V4.09339H9.59777C8.03321 4.09339 7.42234 4.57438 7.42234 5.90415V8.36156H11.0747L10.7495 11.983H7.42222L7.4221 23.1059ZM17.5518 8.07216C17.4875 8.07216 17.4213 8.07453 17.3558 8.07619C13.2622 8.07619 11.3893 11.1883 11.3893 15.606C11.3893 21.1712 13.8187 23.3985 17.3878 23.3985C19.4297 23.3985 20.7713 22.5298 21.5868 20.9088V23.1075H25.7858V8.3631H21.5868V10.6306C20.921 9.17174 19.5419 8.08945 17.5518 8.07216ZM18.6195 11.5562C20.3388 11.5562 21.3707 12.7683 21.3707 14.83L21.3747 16.9357C21.3747 18.3253 20.5224 19.9509 18.6195 19.9509C15.694 19.9509 15.7721 16.7583 15.7721 15.695C15.7721 12.1181 17.3308 11.5562 18.6195 11.5562ZM27.4816 15.7361C27.4816 13.9444 27.3968 8.08175 34.9541 8.08175C37.9877 8.08175 39.2544 9.05664 39.2544 9.05664L38.2363 12.2482C38.2363 12.2482 36.9712 11.5441 35.3228 11.5441C33.2114 11.5441 31.8642 12.7812 31.8642 14.9577L31.8665 16.5184C31.8665 18.6098 33.1664 20.0059 35.3271 20.0059C36.8289 20.0059 38.213 19.2952 38.213 19.2952L39.2285 22.4201C39.2285 22.4201 38.0703 23.4011 34.9753 23.4011C27.7795 23.4011 27.4817 18.1412 27.4817 15.7361H27.4816ZM63.8749 8.07619C67.9685 8.07619 69.871 11.1883 69.871 15.606C69.871 21.1712 67.4414 23.3985 63.8724 23.3985C61.8304 23.3985 60.3209 22.53 59.5055 20.9088V23.1075L55.3593 23.1058V0.989325L59.7615 0.601288V10.4308C60.3968 8.71112 62.4849 8.07619 63.875 8.07619H63.8749ZM62.6407 11.5562C60.9214 11.5562 59.7615 12.7683 59.7615 14.83L59.7574 16.9357C59.7548 18.3253 60.5606 19.9509 62.6407 19.9509C65.5662 19.9509 65.488 16.7583 65.488 15.695C65.488 12.1181 63.9294 11.5562 62.6407 11.5562ZM46.8926 8.08839C42.2495 8.08839 39.7983 10.6469 39.7983 15.1937V16.0385C39.7983 21.9398 43.2406 23.4591 47.3445 23.4591C51.3334 23.4591 53.139 22.3315 53.139 22.3315L52.3152 19.3286C52.3152 19.3286 50.1913 20.2419 47.8723 20.2419C45.4681 20.2419 44.4342 19.6226 44.1692 17.2875H53.4909V14.8784C53.4909 9.94628 50.7399 8.08827 46.8925 8.08827L46.8926 8.08839ZM47.0045 11.0954C48.6117 11.0954 49.6531 12.0914 49.5959 14.4015H44.1773C44.2712 11.9702 45.3943 11.0955 47.0045 11.0955V11.0954ZM78.6488 8.06814C73.8807 8.06814 71.3705 10.7838 71.3705 15.6504C71.3705 22.3277 75.6975 23.4025 78.6567 23.4025C82.9888 23.4025 85.871 21.0453 85.871 15.7111C85.871 10.1591 82.6303 8.06814 78.6488 8.06814V8.06814ZM78.5888 11.5683C80.6854 11.5683 81.5161 13.1542 81.5161 14.9594V16.5114C81.5161 18.6983 80.3537 19.9631 78.5808 19.9631C76.9228 19.9631 75.7575 18.78 75.7575 16.5114V14.9594C75.7575 12.54 77.1441 11.5683 78.5888 11.5683V11.5683ZM94.6409 8.06814C89.8728 8.06814 87.3627 10.7838 87.3627 15.6504C87.3627 22.3277 91.6896 23.4025 94.6489 23.4025C98.9809 23.4025 101.863 21.0453 101.863 15.7111C101.863 10.1591 98.6224 8.06814 94.6409 8.06814V8.06814ZM94.5809 11.5683C96.6775 11.5683 97.5082 13.1542 97.5082 14.9594V16.5114C97.5082 18.6983 96.3457 19.9631 94.573 19.9631C92.9149 19.9631 91.7496 18.78 91.7496 16.5114V14.9594C91.7496 12.54 93.1362 11.5683 94.5809 11.5683V11.5683ZM103.527 23.1059V0.989325L107.942 0.601288V15.4252L112.322 8.36156H116.984L112.415 15.6774L117.16 23.1059H112.485L107.942 15.8929V23.1059H103.527Z" fill="white"/>
</svg>
