<svg width="32" height="32" viewBox="0 0 32 32" fill="none" xmlns="http://www.w3.org/2000/svg">
<g clip-path="url(#clip0_227_125)">
<path d="M21.7143 20.5714C21.4112 20.5714 21.1205 20.6918 20.9062 20.9061C20.6918 21.1205 20.5714 21.4112 20.5714 21.7143C20.5714 22.0174 20.6918 22.3081 20.9062 22.5224C21.1205 22.7367 21.4112 22.8571 21.7143 22.8571H26.2857C26.5888 22.8571 26.8795 22.7367 27.0938 22.5224C27.3082 22.3081 27.4286 22.0174 27.4286 21.7143C27.4286 21.4112 27.3082 21.1205 27.0938 20.9061C26.8795 20.6918 26.5888 20.5714 26.2857 20.5714H21.7143ZM0 10.2857C0 8.77017 0.602039 7.31672 1.67368 6.24509C2.74531 5.17345 4.19876 4.57141 5.71429 4.57141H26.2857C27.8012 4.57141 29.2547 5.17345 30.3263 6.24509C31.398 7.31672 32 8.77017 32 10.2857V21.7143C32 23.2298 31.398 24.6832 30.3263 25.7549C29.2547 26.8265 27.8012 27.4286 26.2857 27.4286H5.71429C4.19876 27.4286 2.74531 26.8265 1.67368 25.7549C0.602039 24.6832 0 23.2298 0 21.7143V10.2857ZM29.7143 11.4286V10.2857C29.7143 9.37638 29.3531 8.50431 28.7101 7.86133C28.0671 7.21835 27.195 6.85713 26.2857 6.85713H5.71429C4.80497 6.85713 3.9329 7.21835 3.28992 7.86133C2.64694 8.50431 2.28571 9.37638 2.28571 10.2857V11.4286H29.7143ZM2.28571 13.7143V21.7143C2.28571 22.6236 2.64694 23.4957 3.28992 24.1386C3.9329 24.7816 4.80497 25.1428 5.71429 25.1428H26.2857C27.195 25.1428 28.0671 24.7816 28.7101 24.1386C29.3531 23.4957 29.7143 22.6236 29.7143 21.7143V13.7143H2.28571Z" fill="white"/>
</g>
<defs>
<clipPath id="clip0_227_125">
<rect width="32" height="32" fill="white"/>
</clipPath>
</defs>
</svg>
