<svg width="40" height="40" viewBox="0 0 40 40" fill="none" xmlns="http://www.w3.org/2000/svg">
<g clip-path="url(#clip0_248_222)">
<rect width="40" height="40" rx="20" fill="white"/>
<path d="M10.4784 22.7288C10.6427 22.2863 11.1584 21.9277 11.6304 21.9277H14.1939C14.6658 21.9277 14.9152 22.2863 14.751 22.7288L13.8586 25.132C13.6944 25.5744 13.1786 25.933 12.7067 25.933H10.1432C9.67125 25.933 9.42185 25.5744 9.58612 25.132L10.4784 22.7288Z" fill="#1F1F1F"/>
<path d="M22.5431 17.8689C22.7073 17.4265 23.2231 17.0678 23.695 17.0678H26.2585C26.7305 17.0678 26.9799 17.4265 26.8156 17.8689L25.9233 20.2721C25.759 20.7145 25.2433 21.0732 24.7713 21.0732H22.2078C21.7359 21.0732 21.4865 20.7145 21.6508 20.2721L22.5431 17.8689Z" fill="#1F1F1F"/>
<path d="M19.219 13.0068C19.3833 12.5643 19.899 12.2057 20.371 12.2057H30.1124C30.5843 12.2057 30.8337 12.5643 30.6694 13.0068L29.7771 15.41C29.6128 15.8524 29.0971 16.211 28.6252 16.211H18.8838C18.4119 16.211 18.1625 15.8524 18.3267 15.41L19.219 13.0068Z" fill="#1F1F1F"/>
<path d="M11.3862 17.0678H21.1275C21.5995 17.0678 21.8489 17.4265 21.6846 17.8689L20.7923 20.2721L18.2938 27.0011C18.1296 27.4435 17.6138 27.8022 17.1419 27.8022H14.5784C14.1064 27.8022 13.857 27.4435 14.0213 27.0011L16.0078 21.6509C16.1118 21.371 15.9047 21.0732 15.606 21.0732H9.89898C9.42705 21.0732 9.17764 20.7145 9.34191 20.2721L10.2342 17.8689C10.3985 17.4265 10.9142 17.0678 11.3862 17.0678Z" fill="#1F1F1F"/>
</g>
<defs>
<clipPath id="clip0_248_222">
<rect width="40" height="40" fill="white"/>
</clipPath>
</defs>
</svg>
