<svg width="48" height="48" viewBox="0 0 48 48" fill="none" xmlns="http://www.w3.org/2000/svg">
<g clip-path="url(#clip0_230_39)">
<rect width="48" height="48" rx="24" fill="white"/>
<path d="M12.5742 27.2746C12.7714 26.7437 13.3903 26.3133 13.9566 26.3133H17.0328C17.5991 26.3133 17.8984 26.7437 17.7013 27.2746L16.6305 30.1585C16.4334 30.6894 15.8145 31.1198 15.2482 31.1198H12.1719C11.6056 31.1198 11.3063 30.6894 11.5035 30.1585L12.5742 27.2746Z" fill="#1F1F1F"/>
<path d="M27.0518 21.4428C27.2489 20.9119 27.8678 20.4815 28.4341 20.4815H31.5104C32.0767 20.4815 32.376 20.9119 32.1788 21.4428L31.1081 24.3266C30.9109 24.8575 30.292 25.2879 29.7257 25.2879H26.6495C26.0832 25.2879 25.7839 24.8575 25.981 24.3266L27.0518 21.4428Z" fill="#1F1F1F"/>
<path d="M23.063 15.6082C23.2601 15.0773 23.879 14.6469 24.4453 14.6469H36.1349C36.7013 14.6469 37.0005 15.0773 36.8034 15.6082L35.7326 18.4921C35.5355 19.023 34.9166 19.4534 34.3503 19.4534H22.6607C22.0944 19.4534 21.7951 19.023 21.9922 18.4921L23.063 15.6082Z" fill="#1F1F1F"/>
<path d="M13.6635 20.4815H25.3532C25.9195 20.4815 26.2188 20.9119 26.0217 21.4428L24.9509 24.3266L21.9527 32.4014C21.7556 32.9323 21.1367 33.3627 20.5704 33.3627H17.4942C16.9278 33.3627 16.6285 32.9323 16.8257 32.4014L19.2095 25.9812C19.3342 25.6453 19.0857 25.2879 18.7274 25.2879H11.8789C11.3126 25.2879 11.0133 24.8575 11.2104 24.3266L12.2812 21.4428C12.4783 20.9119 13.0972 20.4815 13.6635 20.4815Z" fill="#1F1F1F"/>
</g>
<defs>
<clipPath id="clip0_230_39">
<rect width="48" height="48" fill="white"/>
</clipPath>
</defs>
</svg>
