<svg width="35" height="36" viewBox="0 0 35 36" fill="none" xmlns="http://www.w3.org/2000/svg">
<g clip-path="url(#clip0_208_71)">
<rect y="0.5" width="35" height="35" rx="17.5" fill="white"/>
<path d="M9.16867 20.3876C9.31241 20.0005 9.76368 19.6867 10.1766 19.6867H12.4197C12.8326 19.6867 13.0509 20.0005 12.9071 20.3876L12.1264 22.4904C11.9826 22.8775 11.5314 23.1914 11.1184 23.1914H8.87533C8.46239 23.1914 8.24416 22.8775 8.3879 22.4904L9.16867 20.3876Z" fill="#1F1F1F"/>
<path d="M19.7252 16.1352C19.869 15.7481 20.3202 15.4343 20.7332 15.4343H22.9763C23.3892 15.4343 23.6074 15.7481 23.4637 16.1352L22.6829 18.238C22.5392 18.6252 22.0879 18.939 21.675 18.939H19.4319C19.0189 18.939 18.8007 18.6252 18.9445 18.238L19.7252 16.1352Z" fill="#1F1F1F"/>
<path d="M16.8167 11.8809C16.9604 11.4938 17.4117 11.1799 17.8247 11.1799H26.3484C26.7613 11.1799 26.9795 11.4938 26.8358 11.8809L26.055 13.9837C25.9113 14.3708 25.46 14.6846 25.0471 14.6846H16.5234C16.1104 14.6846 15.8922 14.3708 16.0359 13.9837L16.8167 11.8809Z" fill="#1F1F1F"/>
<path d="M9.96295 15.4343H18.4866C18.8996 15.4343 19.1178 15.7481 18.9741 16.1352L18.1933 18.238L16.0071 24.1259C15.8634 24.513 15.4121 24.8268 14.9992 24.8268H12.7561C12.3432 24.8268 12.1249 24.513 12.2687 24.1259L14.0069 19.4445C14.0978 19.1995 13.9166 18.939 13.6553 18.939H8.66166C8.24872 18.939 8.03048 18.6252 8.17422 18.238L8.955 16.1352C9.09873 15.7481 9.55001 15.4343 9.96295 15.4343Z" fill="#1F1F1F"/>
</g>
<defs>
<clipPath id="clip0_208_71">
<rect width="35" height="35" fill="white" transform="translate(0 0.5)"/>
</clipPath>
</defs>
</svg>
