<svg width="33" height="32" viewBox="0 0 33 32" fill="none" xmlns="http://www.w3.org/2000/svg">
<g clip-path="url(#clip0_227_126)">
<g clip-path="url(#clip1_227_126)">
<path d="M7.43067 30H14.9027L15.496 27.3333H18.8373L19.4307 30H26.9027L27.7453 26.2093C32.612 22.128 33.9987 15.0227 30.7133 9.332C30.412 8.812 30.0827 8.31867 29.7267 7.85467C29.9957 6.37545 29.7568 4.84874 29.0488 3.52241C28.3408 2.19607 27.2052 1.148 25.8265 0.548364C24.4478 -0.0512753 22.9068 -0.167273 21.4539 0.219205C20.0009 0.605683 18.7213 1.47194 17.8227 2.67733C16.032 2.79067 14.2227 3.21467 12.484 3.95067L11.2573 4.47067L12.2947 6.92533L13.5227 6.40533C14.511 5.98617 15.5446 5.68282 16.6027 5.50133C16.3417 6.97028 16.5811 8.4843 17.2824 9.80113C17.9837 11.118 19.1065 12.1615 20.471 12.7647C21.8356 13.368 23.363 13.4961 24.809 13.1285C26.255 12.7609 27.5358 11.919 28.4467 10.7373C29.7089 12.9639 30.1286 15.5701 29.6293 18.0804C29.13 20.5907 27.7449 22.8379 25.7267 24.412L25.348 24.7067L24.764 27.3333H21.5693L20.9773 24.6667H13.356L12.764 27.3333H9.56933L8.67733 23.32L8.00933 23.064C6.59067 22.52 4.592 21.3707 3.16667 20.0907V14H4.588L7.31733 9.45333L6.42667 7.22533C7.50133 7.364 8.74 7.89333 9.89467 9.164L10.792 10.1507L12.7653 8.356L11.868 7.36933C9.344 4.59333 6.308 4.20933 4.19867 4.70133L2.68533 5.05333L4.34933 9.21333L3.07867 11.3333H0.5V21.2213L0.893333 21.612C2.42667 23.1373 4.62 24.492 6.38 25.2747L7.43067 30ZM7.83333 15.3333H10.5053V12.6587H7.83333V15.3333ZM23.1667 10.6667C22.1058 10.6667 21.0884 10.2452 20.3382 9.49509C19.5881 8.74495 19.1667 7.72753 19.1667 6.66667C19.1667 5.6058 19.5881 4.58839 20.3382 3.83824C21.0884 3.08809 22.1058 2.66667 23.1667 2.66667C24.2275 2.66667 25.2449 3.08809 25.9951 3.83824C26.7452 4.58839 27.1667 5.6058 27.1667 6.66667C27.1667 7.72753 26.7452 8.74495 25.9951 9.49509C25.2449 10.2452 24.2275 10.6667 23.1667 10.6667Z" fill="white"/>
</g>
</g>
<defs>
<clipPath id="clip0_227_126">
<rect width="32" height="32" fill="white" transform="translate(0.5)"/>
</clipPath>
<clipPath id="clip1_227_126">
<rect width="32" height="32" fill="white" transform="translate(0.5)"/>
</clipPath>
</defs>
</svg>
