<svg width="32" height="32" viewBox="0 0 32 32" fill="none" xmlns="http://www.w3.org/2000/svg">
<g clip-path="url(#clip0_227_127)">
<path d="M23.8667 3.2C23.4423 3.2 23.0354 3.03143 22.7353 2.73137C22.4352 2.43131 22.2667 2.02435 22.2667 1.6C22.2667 1.17565 22.4352 0.768687 22.7353 0.468629C23.0354 0.168571 23.4423 0 23.8667 0H30.2667C30.691 0 31.098 0.168571 31.398 0.468629C31.6981 0.768687 31.8667 1.17565 31.8667 1.6V8C31.8667 8.42435 31.6981 8.83131 31.398 9.13137C31.098 9.43143 30.691 9.6 30.2667 9.6C29.8423 9.6 29.4354 9.43143 29.1353 9.13137C28.8352 8.83131 28.6667 8.42435 28.6667 8V5.4624L19.3979 14.7312C19.0978 15.0312 18.6909 15.1997 18.2667 15.1997C17.8424 15.1997 17.4355 15.0312 17.1355 14.7312L12.6667 10.2624L4.19787 18.7312C3.89611 19.0227 3.49195 19.1839 3.07243 19.1803C2.65292 19.1766 2.25162 19.0084 1.95497 18.7117C1.65831 18.4151 1.49004 18.0138 1.4864 17.5942C1.48275 17.1747 1.64402 16.7706 1.93547 16.4688L11.5355 6.8688C11.8355 6.56885 12.2424 6.40034 12.6667 6.40034C13.0909 6.40034 13.4978 6.56885 13.7979 6.8688L18.2667 11.3376L26.4043 3.2H23.8667ZM4.66667 25.6V30.4C4.66667 30.8243 4.4981 31.2313 4.19805 31.5314C3.89799 31.8314 3.49102 32 3.06667 32C2.64233 32 2.23536 31.8314 1.9353 31.5314C1.63525 31.2313 1.46667 30.8243 1.46667 30.4V25.6C1.46667 25.1757 1.63525 24.7687 1.9353 24.4686C2.23536 24.1686 2.64233 24 3.06667 24C3.49102 24 3.89799 24.1686 4.19805 24.4686C4.4981 24.7687 4.66667 25.1757 4.66667 25.6ZM12.6667 19.2C12.6667 18.7757 12.4981 18.3687 12.198 18.0686C11.898 17.7686 11.491 17.6 11.0667 17.6C10.6423 17.6 10.2354 17.7686 9.9353 18.0686C9.63525 18.3687 9.46667 18.7757 9.46667 19.2V30.4C9.46667 30.8243 9.63525 31.2313 9.9353 31.5314C10.2354 31.8314 10.6423 32 11.0667 32C11.491 32 11.898 31.8314 12.198 31.5314C12.4981 31.2313 12.6667 30.8243 12.6667 30.4V19.2ZM19.0667 20.8C19.491 20.8 19.898 20.9686 20.198 21.2686C20.4981 21.5687 20.6667 21.9757 20.6667 22.4V30.4C20.6667 30.8243 20.4981 31.2313 20.198 31.5314C19.898 31.8314 19.491 32 19.0667 32C18.6423 32 18.2354 31.8314 17.9353 31.5314C17.6352 31.2313 17.4667 30.8243 17.4667 30.4V22.4C17.4667 21.9757 17.6352 21.5687 17.9353 21.2686C18.2354 20.9686 18.6423 20.8 19.0667 20.8ZM28.6667 14.4C28.6667 13.9757 28.4981 13.5687 28.198 13.2686C27.898 12.9686 27.491 12.8 27.0667 12.8C26.6423 12.8 26.2354 12.9686 25.9353 13.2686C25.6352 13.5687 25.4667 13.9757 25.4667 14.4V30.4C25.4667 30.8243 25.6352 31.2313 25.9353 31.5314C26.2354 31.8314 26.6423 32 27.0667 32C27.491 32 27.898 31.8314 28.198 31.5314C28.4981 31.2313 28.6667 30.8243 28.6667 30.4V14.4Z" fill="white"/>
</g>
<defs>
<clipPath id="clip0_227_127">
<rect width="32" height="32" fill="white"/>
</clipPath>
</defs>
</svg>
